<svg width="358" height="77" viewBox="0 0 358 77" fill="none" xmlns="http://www.w3.org/2000/svg">
<rect x="211" y="10" width="104" height="58" rx="29" fill="#CBE5FD"/>
<path d="M66.03 47.88C65.53 47.88 65.09 47.84 64.71 47.76C64.33 47.7 63.99 47.61 63.69 47.49V44.79C64.01 44.87 64.35 44.94 64.71 45C65.07 45.06 65.45 45.09 65.85 45.09C66.35 45.09 66.82 44.99 67.26 44.79C67.72 44.59 68.08 44.23 68.34 43.71C68.6 43.19 68.73 42.46 68.73 41.52V20.58H71.97V41.37C71.97 42.87 71.72 44.1 71.22 45.06C70.74 46.04 70.05 46.75 69.15 47.19C68.27 47.65 67.23 47.88 66.03 47.88ZM80.3712 25.83V42H77.1912V25.83H80.3712ZM78.8112 19.68C79.2912 19.68 79.7112 19.82 80.0712 20.1C80.4312 20.38 80.6112 20.85 80.6112 21.51C80.6112 22.15 80.4312 22.62 80.0712 22.92C79.7112 23.2 79.2912 23.34 78.8112 23.34C78.2912 23.34 77.8512 23.2 77.4912 22.92C77.1512 22.62 76.9812 22.15 76.9812 21.51C76.9812 20.85 77.1512 20.38 77.4912 20.1C77.8512 19.82 78.2912 19.68 78.8112 19.68ZM93.555 25.53C95.435 25.53 96.875 26 97.875 26.94C98.875 27.88 99.375 29.39 99.375 31.47V42H96.225V31.92C96.225 30.66 95.955 29.72 95.415 29.1C94.895 28.46 94.055 28.14 92.895 28.14C91.255 28.14 90.115 28.63 89.475 29.61C88.855 30.59 88.545 32 88.545 33.84V42H85.365V25.83H87.885L88.335 27.99H88.515C88.875 27.43 89.315 26.97 89.835 26.61C90.355 26.25 90.935 25.98 91.575 25.8C92.215 25.62 92.875 25.53 93.555 25.53ZM102.881 35.31V32.61H110.321V35.31H102.881ZM111.469 25.83H114.889L118.249 35.01C118.429 35.47 118.589 35.92 118.729 36.36C118.869 36.8 118.989 37.24 119.089 37.68C119.209 38.1 119.299 38.52 119.359 38.94H119.479C119.579 38.42 119.739 37.81 119.959 37.11C120.179 36.39 120.409 35.68 120.649 34.98L123.829 25.83H127.249L120.319 44.19C119.939 45.23 119.469 46.12 118.909 46.86C118.349 47.62 117.679 48.2 116.899 48.6C116.139 49 115.239 49.2 114.199 49.2C113.699 49.2 113.269 49.17 112.909 49.11C112.549 49.07 112.239 49.02 111.979 48.96V46.44C112.199 46.48 112.459 46.52 112.759 46.56C113.079 46.6 113.409 46.62 113.749 46.62C114.369 46.62 114.899 46.5 115.339 46.26C115.799 46.02 116.179 45.68 116.479 45.24C116.799 44.8 117.069 44.3 117.289 43.74L117.949 42L111.469 25.83ZM136.11 25.53C137.53 25.53 138.75 25.83 139.77 26.43C140.79 27.01 141.57 27.85 142.11 28.95C142.67 30.05 142.95 31.35 142.95 32.85V34.59H132.09C132.13 36.25 132.56 37.52 133.38 38.4C134.22 39.28 135.39 39.72 136.89 39.72C137.93 39.72 138.85 39.63 139.65 39.45C140.47 39.25 141.31 38.96 142.17 38.58V41.22C141.37 41.58 140.55 41.85 139.71 42.03C138.89 42.21 137.91 42.3 136.77 42.3C135.21 42.3 133.83 41.99 132.63 41.37C131.43 40.75 130.49 39.83 129.81 38.61C129.15 37.37 128.82 35.85 128.82 34.05C128.82 32.23 129.12 30.69 129.72 29.43C130.34 28.17 131.19 27.21 132.27 26.55C133.37 25.87 134.65 25.53 136.11 25.53ZM136.11 27.99C134.97 27.99 134.05 28.36 133.35 29.1C132.67 29.84 132.27 30.89 132.15 32.25H139.77C139.77 31.41 139.64 30.67 139.38 30.03C139.12 29.39 138.72 28.89 138.18 28.53C137.64 28.17 136.95 27.99 136.11 27.99ZM161.168 33.9C161.168 35.24 160.988 36.43 160.628 37.47C160.268 38.51 159.758 39.39 159.098 40.11C158.438 40.83 157.638 41.38 156.698 41.76C155.758 42.12 154.698 42.3 153.518 42.3C152.438 42.3 151.438 42.12 150.518 41.76C149.598 41.38 148.798 40.83 148.118 40.11C147.458 39.39 146.938 38.51 146.558 37.47C146.178 36.43 145.988 35.23 145.988 33.87C145.988 32.09 146.288 30.58 146.888 29.34C147.508 28.1 148.388 27.16 149.528 26.52C150.688 25.86 152.048 25.53 153.608 25.53C155.088 25.53 156.388 25.86 157.508 26.52C158.648 27.16 159.538 28.1 160.178 29.34C160.838 30.58 161.168 32.1 161.168 33.9ZM149.258 33.9C149.258 35.1 149.408 36.14 149.708 37.02C150.008 37.88 150.478 38.54 151.118 39C151.758 39.46 152.578 39.69 153.578 39.69C154.578 39.69 155.398 39.46 156.038 39C156.678 38.54 157.148 37.88 157.448 37.02C157.748 36.14 157.898 35.1 157.898 33.9C157.898 32.66 157.738 31.62 157.418 30.78C157.118 29.94 156.648 29.3 156.008 28.86C155.388 28.4 154.568 28.17 153.548 28.17C152.048 28.17 150.958 28.67 150.278 29.67C149.598 30.67 149.258 32.08 149.258 33.9ZM173.389 25.53C175.269 25.53 176.709 26 177.709 26.94C178.709 27.88 179.209 29.39 179.209 31.47V42H176.059V31.92C176.059 30.66 175.789 29.72 175.249 29.1C174.729 28.46 173.889 28.14 172.729 28.14C171.089 28.14 169.949 28.63 169.309 29.61C168.689 30.59 168.379 32 168.379 33.84V42H165.199V25.83H167.719L168.169 27.99H168.349C168.709 27.43 169.149 26.97 169.669 26.61C170.189 26.25 170.769 25.98 171.409 25.8C172.049 25.62 172.709 25.53 173.389 25.53ZM189.675 25.53C190.715 25.53 191.655 25.73 192.495 26.13C193.335 26.53 194.045 27.14 194.625 27.96H194.775L195.135 25.83H197.715V42.21C197.715 43.73 197.445 45.01 196.905 46.05C196.365 47.09 195.535 47.87 194.415 48.39C193.315 48.93 191.925 49.2 190.245 49.2C189.085 49.2 188.015 49.12 187.035 48.96C186.055 48.8 185.155 48.55 184.335 48.21V45.42C184.915 45.7 185.525 45.93 186.165 46.11C186.805 46.31 187.485 46.45 188.205 46.53C188.925 46.63 189.665 46.68 190.425 46.68C191.745 46.68 192.765 46.3 193.485 45.54C194.205 44.8 194.565 43.75 194.565 42.39V41.85C194.565 41.59 194.575 41.25 194.595 40.83C194.615 40.39 194.635 40.07 194.655 39.87H194.535C193.975 40.71 193.285 41.33 192.465 41.73C191.665 42.11 190.735 42.3 189.675 42.3C187.635 42.3 186.035 41.57 184.875 40.11C183.735 38.63 183.165 36.58 183.165 33.96C183.165 32.2 183.425 30.7 183.945 29.46C184.465 28.2 185.205 27.23 186.165 26.55C187.145 25.87 188.315 25.53 189.675 25.53ZM190.335 28.17C189.495 28.17 188.785 28.4 188.205 28.86C187.625 29.3 187.185 29.95 186.885 30.81C186.585 31.67 186.435 32.73 186.435 33.99C186.435 35.87 186.765 37.3 187.425 38.28C188.105 39.26 189.095 39.75 190.395 39.75C191.155 39.75 191.795 39.65 192.315 39.45C192.855 39.25 193.295 38.94 193.635 38.52C193.995 38.1 194.255 37.57 194.415 36.93C194.595 36.27 194.685 35.48 194.685 34.56V33.96C194.685 32.58 194.525 31.47 194.205 30.63C193.905 29.77 193.435 29.15 192.795 28.77C192.155 28.37 191.335 28.17 190.335 28.17Z" fill="black"/>
<path d="M238.325 41.07C238.325 42.54 237.998 43.8233 237.345 44.92C236.692 46.0167 235.7 46.8683 234.37 47.475C233.063 48.0583 231.407 48.35 229.4 48.35C228.467 48.35 227.603 48.2917 226.81 48.175C226.017 48.0583 225.27 47.895 224.57 47.685C223.87 47.4517 223.17 47.1717 222.47 46.845V41.91C223.66 42.4233 224.873 42.9017 226.11 43.345C227.37 43.765 228.56 43.975 229.68 43.975C230.403 43.975 230.987 43.8583 231.43 43.625C231.873 43.3917 232.2 43.0767 232.41 42.68C232.62 42.2833 232.725 41.8283 232.725 41.315C232.725 40.685 232.55 40.1483 232.2 39.705C231.873 39.2617 231.383 38.8533 230.73 38.48C230.077 38.0833 229.272 37.6867 228.315 37.29C227.615 36.9867 226.927 36.6367 226.25 36.24C225.573 35.8433 224.967 35.365 224.43 34.805C223.893 34.2217 223.462 33.5217 223.135 32.705C222.832 31.8883 222.68 30.9083 222.68 29.765C222.68 28.2717 223.03 27 223.73 25.95C224.43 24.8767 225.41 24.06 226.67 23.5C227.93 22.94 229.4 22.66 231.08 22.66C232.457 22.66 233.728 22.8117 234.895 23.115C236.085 23.4183 237.217 23.85 238.29 24.41L236.505 28.54C235.478 28.0733 234.498 27.7117 233.565 27.455C232.655 27.1983 231.768 27.07 230.905 27.07C230.322 27.07 229.832 27.175 229.435 27.385C229.038 27.595 228.735 27.8867 228.525 28.26C228.338 28.6333 228.245 29.0767 228.245 29.59C228.245 30.1733 228.397 30.675 228.7 31.095C229.027 31.4917 229.528 31.8883 230.205 32.285C230.882 32.6583 231.745 33.1133 232.795 33.65C233.962 34.2333 234.953 34.8517 235.77 35.505C236.61 36.135 237.24 36.8933 237.66 37.78C238.103 38.6667 238.325 39.7633 238.325 41.07ZM250.025 28.505C252.382 28.505 254.202 29.065 255.485 30.185C256.792 31.2817 257.445 32.9733 257.445 35.26V48H253.56L252.475 45.41H252.335C251.822 46.0867 251.297 46.6467 250.76 47.09C250.224 47.5333 249.605 47.8483 248.905 48.035C248.205 48.245 247.354 48.35 246.35 48.35C245.3 48.35 244.355 48.14 243.515 47.72C242.699 47.2767 242.045 46.6117 241.555 45.725C241.065 44.815 240.82 43.6717 240.82 42.295C240.82 40.265 241.485 38.7717 242.815 37.815C244.169 36.835 246.152 36.2983 248.765 36.205L251.845 36.1V35.26C251.845 34.2567 251.624 33.5217 251.18 33.055C250.737 32.5883 250.13 32.355 249.36 32.355C248.567 32.355 247.739 32.495 246.875 32.775C246.012 33.0317 245.149 33.3583 244.285 33.755L242.57 30.22C243.597 29.6833 244.729 29.2633 245.965 28.96C247.225 28.6567 248.579 28.505 250.025 28.505ZM250.235 39.215C248.859 39.2617 247.89 39.565 247.33 40.125C246.794 40.685 246.525 41.42 246.525 42.33C246.525 43.1233 246.712 43.695 247.085 44.045C247.482 44.3717 247.995 44.535 248.625 44.535C249.512 44.535 250.27 44.2083 250.9 43.555C251.554 42.8783 251.88 41.9333 251.88 40.72V39.145L250.235 39.215ZM272.886 28.54C274.799 28.54 276.339 29.1 277.506 30.22C278.696 31.3167 279.291 33.09 279.291 35.54V48H273.691V36.835C273.691 35.4583 273.481 34.4317 273.061 33.755C272.664 33.055 272.022 32.705 271.136 32.705C269.782 32.705 268.872 33.2533 268.406 34.35C267.939 35.4233 267.706 36.975 267.706 39.005V48H262.106V28.89H266.341L267.111 31.34H267.356C267.752 30.6867 268.219 30.1617 268.756 29.765C269.316 29.345 269.946 29.0417 270.646 28.855C271.346 28.645 272.092 28.54 272.886 28.54ZM289.756 28.54C290.946 28.54 291.95 28.7733 292.766 29.24C293.606 29.7067 294.295 30.4067 294.831 31.34H294.971L295.391 28.89H300.186V48.035C300.186 49.855 299.836 51.3833 299.136 52.62C298.46 53.8567 297.433 54.79 296.056 55.42C294.68 56.0733 292.941 56.4 290.841 56.4C289.488 56.4 288.251 56.3183 287.131 56.155C286.035 55.9917 284.973 55.7 283.946 55.28V51.115C284.693 51.4417 285.416 51.71 286.116 51.92C286.84 52.1533 287.575 52.3167 288.321 52.41C289.091 52.5267 289.92 52.585 290.806 52.585C292.09 52.585 293.035 52.2233 293.641 51.5C294.271 50.7767 294.586 49.6917 294.586 48.245V47.86C294.586 47.4633 294.598 47.055 294.621 46.635C294.668 46.215 294.715 45.8417 294.761 45.515H294.586C294.073 46.5183 293.408 47.2417 292.591 47.685C291.798 48.1283 290.818 48.35 289.651 48.35C287.621 48.35 286 47.4867 284.786 45.76C283.596 44.01 283.001 41.5833 283.001 38.48C283.001 36.38 283.281 34.595 283.841 33.125C284.401 31.6317 285.183 30.5 286.186 29.73C287.213 28.9367 288.403 28.54 289.756 28.54ZM291.716 32.775C291.04 32.775 290.48 32.9967 290.036 33.44C289.593 33.86 289.255 34.5017 289.021 35.365C288.811 36.205 288.706 37.2667 288.706 38.55C288.706 40.4633 288.951 41.8983 289.441 42.855C289.955 43.7883 290.736 44.255 291.786 44.255C292.346 44.255 292.825 44.1733 293.221 44.01C293.641 43.8233 293.98 43.5317 294.236 43.135C294.493 42.715 294.68 42.1783 294.796 41.525C294.936 40.8717 295.006 40.0783 295.006 39.145V38.515C295.006 37.1383 294.901 36.03 294.691 35.19C294.481 34.35 294.131 33.7433 293.641 33.37C293.175 32.9733 292.533 32.775 291.716 32.775Z" fill="#3143E0"/>
</svg>
