<svg width="762" height="235" viewBox="0 0 762 235" fill="none" xmlns="http://www.w3.org/2000/svg">
<rect width="762" height="235" rx="30" fill="#907EFF"/>
<path d="M79.08 155.68C77.7467 155.68 76.5733 155.573 75.56 155.36C74.5467 155.2 73.64 154.96 72.84 154.64V147.44C73.6933 147.653 74.6 147.84 75.56 148C76.52 148.16 77.5333 148.24 78.6 148.24C79.9333 148.24 81.1867 147.973 82.36 147.44C83.5867 146.907 84.5467 145.947 85.24 144.56C85.9333 143.173 86.28 141.227 86.28 138.72V82.88H94.92V138.32C94.92 142.32 94.2533 145.6 92.92 148.16C91.64 150.773 89.8 152.667 87.4 153.84C85.0533 155.067 82.28 155.68 79.08 155.68ZM117.323 96.88V140H108.843V96.88H117.323ZM113.163 80.48C114.443 80.48 115.563 80.8533 116.523 81.6C117.483 82.3467 117.963 83.6 117.963 85.36C117.963 87.0667 117.483 88.32 116.523 89.12C115.563 89.8667 114.443 90.24 113.163 90.24C111.776 90.24 110.603 89.8667 109.643 89.12C108.736 88.32 108.283 87.0667 108.283 85.36C108.283 83.6 108.736 82.3467 109.643 81.6C110.603 80.8533 111.776 80.48 113.163 80.48ZM152.48 96.08C157.493 96.08 161.333 97.3333 164 99.84C166.667 102.347 168 106.373 168 111.92V140H159.6V113.12C159.6 109.76 158.88 107.253 157.44 105.6C156.053 103.893 153.813 103.04 150.72 103.04C146.347 103.04 143.307 104.347 141.6 106.96C139.947 109.573 139.12 113.333 139.12 118.24V140H130.64V96.88H137.36L138.56 102.64H139.04C140 101.147 141.173 99.92 142.56 98.96C143.947 98 145.493 97.28 147.2 96.8C148.907 96.32 150.667 96.08 152.48 96.08ZM177.351 122.16V114.96H197.191V122.16H177.351ZM200.252 96.88H209.372L218.332 121.36C218.812 122.587 219.239 123.787 219.612 124.96C219.985 126.133 220.305 127.307 220.572 128.48C220.892 129.6 221.132 130.72 221.292 131.84H221.612C221.879 130.453 222.305 128.827 222.892 126.96C223.479 125.04 224.092 123.147 224.732 121.28L233.212 96.88H242.332L223.852 145.84C222.839 148.613 221.585 150.987 220.092 152.96C218.599 154.987 216.812 156.533 214.732 157.6C212.705 158.667 210.305 159.2 207.532 159.2C206.199 159.2 205.052 159.12 204.092 158.96C203.132 158.853 202.305 158.72 201.612 158.56V151.84C202.199 151.947 202.892 152.053 203.692 152.16C204.545 152.267 205.425 152.32 206.332 152.32C207.985 152.32 209.399 152 210.572 151.36C211.799 150.72 212.812 149.813 213.612 148.64C214.465 147.467 215.185 146.133 215.772 144.64L217.532 140L200.252 96.88ZM265.959 96.08C269.746 96.08 272.999 96.88 275.719 98.48C278.439 100.027 280.519 102.267 281.959 105.2C283.453 108.133 284.199 111.6 284.199 115.6V120.24H255.239C255.346 124.667 256.493 128.053 258.679 130.4C260.919 132.747 264.039 133.92 268.039 133.92C270.813 133.92 273.266 133.68 275.399 133.2C277.586 132.667 279.826 131.893 282.119 130.88V137.92C279.986 138.88 277.799 139.6 275.559 140.08C273.373 140.56 270.759 140.8 267.719 140.8C263.559 140.8 259.879 139.973 256.679 138.32C253.479 136.667 250.973 134.213 249.159 130.96C247.399 127.653 246.519 123.6 246.519 118.8C246.519 113.947 247.319 109.84 248.919 106.48C250.573 103.12 252.839 100.56 255.719 98.8C258.653 96.9867 262.066 96.08 265.959 96.08ZM265.959 102.64C262.919 102.64 260.466 103.627 258.599 105.6C256.786 107.573 255.719 110.373 255.399 114H275.719C275.719 111.76 275.373 109.787 274.679 108.08C273.986 106.373 272.919 105.04 271.479 104.08C270.039 103.12 268.199 102.64 265.959 102.64ZM332.781 118.4C332.781 121.973 332.301 125.147 331.341 127.92C330.381 130.693 329.021 133.04 327.261 134.96C325.501 136.88 323.367 138.347 320.861 139.36C318.354 140.32 315.527 140.8 312.381 140.8C309.501 140.8 306.834 140.32 304.381 139.36C301.927 138.347 299.794 136.88 297.981 134.96C296.221 133.04 294.834 130.693 293.821 127.92C292.807 125.147 292.301 121.947 292.301 118.32C292.301 113.573 293.101 109.547 294.701 106.24C296.354 102.933 298.701 100.427 301.741 98.72C304.834 96.96 308.461 96.08 312.621 96.08C316.567 96.08 320.034 96.96 323.021 98.72C326.061 100.427 328.434 102.933 330.141 106.24C331.901 109.547 332.781 113.6 332.781 118.4ZM301.021 118.4C301.021 121.6 301.421 124.373 302.221 126.72C303.021 129.013 304.274 130.773 305.981 132C307.687 133.227 309.874 133.84 312.541 133.84C315.207 133.84 317.394 133.227 319.101 132C320.807 130.773 322.061 129.013 322.861 126.72C323.661 124.373 324.061 121.6 324.061 118.4C324.061 115.093 323.634 112.32 322.781 110.08C321.981 107.84 320.727 106.133 319.021 104.96C317.367 103.733 315.181 103.12 312.461 103.12C308.461 103.12 305.554 104.453 303.741 107.12C301.927 109.787 301.021 113.547 301.021 118.4ZM365.371 96.08C370.384 96.08 374.224 97.3333 376.891 99.84C379.557 102.347 380.891 106.373 380.891 111.92V140H372.491V113.12C372.491 109.76 371.771 107.253 370.331 105.6C368.944 103.893 366.704 103.04 363.611 103.04C359.237 103.04 356.197 104.347 354.491 106.96C352.837 109.573 352.011 113.333 352.011 118.24V140H343.531V96.88H350.251L351.451 102.64H351.931C352.891 101.147 354.064 99.92 355.451 98.96C356.837 98 358.384 97.28 360.091 96.8C361.797 96.32 363.557 96.08 365.371 96.08ZM408.801 96.08C411.575 96.08 414.081 96.6133 416.321 97.68C418.561 98.7467 420.455 100.373 422.001 102.56H422.401L423.361 96.88H430.241V140.56C430.241 144.613 429.521 148.027 428.081 150.8C426.641 153.573 424.428 155.653 421.441 157.04C418.508 158.48 414.801 159.2 410.321 159.2C407.228 159.2 404.375 158.987 401.761 158.56C399.148 158.133 396.748 157.467 394.561 156.56V149.12C396.108 149.867 397.735 150.48 399.441 150.96C401.148 151.493 402.961 151.867 404.881 152.08C406.801 152.347 408.775 152.48 410.801 152.48C414.321 152.48 417.041 151.467 418.961 149.44C420.881 147.467 421.841 144.667 421.841 141.04V139.6C421.841 138.907 421.868 138 421.921 136.88C421.975 135.707 422.028 134.853 422.081 134.32H421.761C420.268 136.56 418.428 138.213 416.241 139.28C414.108 140.293 411.628 140.8 408.801 140.8C403.361 140.8 399.095 138.853 396.001 134.96C392.961 131.013 391.441 125.547 391.441 118.56C391.441 113.867 392.135 109.867 393.521 106.56C394.908 103.2 396.881 100.613 399.441 98.8C402.055 96.9867 405.175 96.08 408.801 96.08ZM410.561 103.12C408.321 103.12 406.428 103.733 404.881 104.96C403.335 106.133 402.161 107.867 401.361 110.16C400.561 112.453 400.161 115.28 400.161 118.64C400.161 123.653 401.041 127.467 402.801 130.08C404.615 132.693 407.255 134 410.721 134C412.748 134 414.455 133.733 415.841 133.2C417.281 132.667 418.455 131.84 419.361 130.72C420.321 129.6 421.015 128.187 421.441 126.48C421.921 124.72 422.161 122.613 422.161 120.16V118.56C422.161 114.88 421.735 111.92 420.881 109.68C420.081 107.387 418.828 105.733 417.121 104.72C415.415 103.653 413.228 103.12 410.561 103.12Z" fill="white"/>
<path d="M516.5 134.2C516.5 138.4 515.567 142.067 513.7 145.2C511.833 148.333 509 150.767 505.2 152.5C501.467 154.167 496.733 155 491 155C488.333 155 485.867 154.833 483.6 154.5C481.333 154.167 479.2 153.7 477.2 153.1C475.2 152.433 473.2 151.633 471.2 150.7V136.6C474.6 138.067 478.067 139.433 481.6 140.7C485.2 141.9 488.6 142.5 491.8 142.5C493.867 142.5 495.533 142.167 496.8 141.5C498.067 140.833 499 139.933 499.6 138.8C500.2 137.667 500.5 136.367 500.5 134.9C500.5 133.1 500 131.567 499 130.3C498.067 129.033 496.667 127.867 494.8 126.8C492.933 125.667 490.633 124.533 487.9 123.4C485.9 122.533 483.933 121.533 482 120.4C480.067 119.267 478.333 117.9 476.8 116.3C475.267 114.633 474.033 112.633 473.1 110.3C472.233 107.967 471.8 105.167 471.8 101.9C471.8 97.6333 472.8 94 474.8 91C476.8 87.9333 479.6 85.6 483.2 84C486.8 82.4 491 81.6 495.8 81.6C499.733 81.6 503.367 82.0333 506.7 82.9C510.1 83.7667 513.333 85 516.4 86.6L511.3 98.4C508.367 97.0667 505.567 96.0333 502.9 95.3C500.3 94.5667 497.767 94.2 495.3 94.2C493.633 94.2 492.233 94.5 491.1 95.1C489.967 95.7 489.1 96.5333 488.5 97.6C487.967 98.6667 487.7 99.9333 487.7 101.4C487.7 103.067 488.133 104.5 489 105.7C489.933 106.833 491.367 107.967 493.3 109.1C495.233 110.167 497.7 111.467 500.7 113C504.033 114.667 506.867 116.433 509.2 118.3C511.6 120.1 513.4 122.267 514.6 124.8C515.867 127.333 516.5 130.467 516.5 134.2ZM549.93 98.3C556.663 98.3 561.863 99.9 565.53 103.1C569.263 106.233 571.13 111.067 571.13 117.6V154H560.03L556.93 146.6H556.53C555.063 148.533 553.563 150.133 552.03 151.4C550.496 152.667 548.73 153.567 546.73 154.1C544.73 154.7 542.296 155 539.43 155C536.43 155 533.73 154.4 531.33 153.2C528.996 151.933 527.13 150.033 525.73 147.5C524.33 144.9 523.63 141.633 523.63 137.7C523.63 131.9 525.53 127.633 529.33 124.9C533.196 122.1 538.863 120.567 546.33 120.3L555.13 120V117.6C555.13 114.733 554.496 112.633 553.23 111.3C551.963 109.967 550.23 109.3 548.03 109.3C545.763 109.3 543.396 109.7 540.93 110.5C538.463 111.233 535.996 112.167 533.53 113.3L528.63 103.2C531.563 101.667 534.796 100.467 538.33 99.6C541.93 98.7333 545.796 98.3 549.93 98.3ZM550.53 128.9C546.596 129.033 543.83 129.9 542.23 131.5C540.696 133.1 539.93 135.2 539.93 137.8C539.93 140.067 540.463 141.7 541.53 142.7C542.663 143.633 544.13 144.1 545.93 144.1C548.463 144.1 550.63 143.167 552.43 141.3C554.296 139.367 555.23 136.667 555.23 133.2V128.7L550.53 128.9ZM615.245 98.4C620.711 98.4 625.111 100 628.445 103.2C631.845 106.333 633.545 111.4 633.545 118.4V154H617.545V122.1C617.545 118.167 616.945 115.233 615.745 113.3C614.611 111.3 612.778 110.3 610.245 110.3C606.378 110.3 603.778 111.867 602.445 115C601.111 118.067 600.445 122.5 600.445 128.3V154H584.445V99.4H596.545L598.745 106.4H599.445C600.578 104.533 601.911 103.033 603.445 101.9C605.045 100.7 606.845 99.8333 608.845 99.3C610.845 98.7 612.978 98.4 615.245 98.4ZM663.447 98.4C666.847 98.4 669.714 99.0667 672.047 100.4C674.447 101.733 676.414 103.733 677.947 106.4H678.347L679.547 99.4H693.247V154.1C693.247 159.3 692.247 163.667 690.247 167.2C688.314 170.733 685.38 173.4 681.447 175.2C677.514 177.067 672.547 178 666.547 178C662.68 178 659.147 177.767 655.947 177.3C652.814 176.833 649.78 176 646.847 174.8V162.9C648.98 163.833 651.047 164.6 653.047 165.2C655.114 165.867 657.214 166.333 659.347 166.6C661.547 166.933 663.914 167.1 666.447 167.1C670.114 167.1 672.814 166.067 674.547 164C676.347 161.933 677.247 158.833 677.247 154.7V153.6C677.247 152.467 677.28 151.3 677.347 150.1C677.48 148.9 677.614 147.833 677.747 146.9H677.247C675.78 149.767 673.88 151.833 671.547 153.1C669.28 154.367 666.48 155 663.147 155C657.347 155 652.714 152.533 649.247 147.6C645.847 142.6 644.147 135.667 644.147 126.8C644.147 120.8 644.947 115.7 646.547 111.5C648.147 107.233 650.38 104 653.247 101.8C656.18 99.5333 659.58 98.4 663.447 98.4ZM669.047 110.5C667.114 110.5 665.514 111.133 664.247 112.4C662.98 113.6 662.014 115.433 661.347 117.9C660.747 120.3 660.447 123.333 660.447 127C660.447 132.467 661.147 136.567 662.547 139.3C664.014 141.967 666.247 143.3 669.247 143.3C670.847 143.3 672.214 143.067 673.347 142.6C674.547 142.067 675.514 141.233 676.247 140.1C676.98 138.9 677.514 137.367 677.847 135.5C678.247 133.633 678.447 131.367 678.447 128.7V126.9C678.447 122.967 678.147 119.8 677.547 117.4C676.947 115 675.947 113.267 674.547 112.2C673.214 111.067 671.38 110.5 669.047 110.5Z" fill="white"/>
</svg>
